<svg width="48" height="48" viewBox="0 0 48 48" fill="none" xmlns="http://www.w3.org/2000/svg">
<rect x="0.5" y="0.5" width="47" height="47" rx="11.5" fill="white"/>
<rect x="0.5" y="0.5" width="47" height="47" rx="11.5" stroke="#F1F1F1"/>
<path d="M21.5 14.5V15H26.5V14.5C26.5 13.837 26.2366 13.2011 25.7678 12.7322C25.2989 12.2634 24.663 12 24 12C23.337 12 22.7011 12.2634 22.2322 12.7322C21.7634 13.2011 21.5 13.837 21.5 14.5ZM19.5 15V14.5C19.5 13.3065 19.9741 12.1619 20.818 11.318C21.6619 10.4741 22.8065 10 24 10C25.1935 10 26.3381 10.4741 27.182 11.318C28.0259 12.1619 28.5 13.3065 28.5 14.5V15H36C36.2652 15 36.5196 15.1054 36.7071 15.2929C36.8946 15.4804 37 15.7348 37 16C37 16.2652 36.8946 16.5196 36.7071 16.7071C36.5196 16.8946 36.2652 17 36 17H34.492L32.6 33.568C32.4605 34.7882 31.8768 35.9143 30.9601 36.7317C30.0435 37.5491 28.8581 38.0006 27.63 38H20.37C19.1419 38.0006 17.9565 37.5491 17.0399 36.7317C16.1232 35.9143 15.5395 34.7882 15.4 33.568L13.508 17H12C11.7348 17 11.4804 16.8946 11.2929 16.7071C11.1054 16.5196 11 16.2652 11 16C11 15.7348 11.1054 15.4804 11.2929 15.2929C11.4804 15.1054 11.7348 15 12 15H19.5ZM22 21.5C22 21.2348 21.8946 20.9804 21.7071 20.7929C21.5196 20.6054 21.2652 20.5 21 20.5C20.7348 20.5 20.4804 20.6054 20.2929 20.7929C20.1054 20.9804 20 21.2348 20 21.5V31.5C20 31.7652 20.1054 32.0196 20.2929 32.2071C20.4804 32.3946 20.7348 32.5 21 32.5C21.2652 32.5 21.5196 32.3946 21.7071 32.2071C21.8946 32.0196 22 31.7652 22 31.5V21.5ZM27 20.5C26.7348 20.5 26.4804 20.6054 26.2929 20.7929C26.1054 20.9804 26 21.2348 26 21.5V31.5C26 31.7652 26.1054 32.0196 26.2929 32.2071C26.4804 32.3946 26.7348 32.5 27 32.5C27.2652 32.5 27.5196 32.3946 27.7071 32.2071C27.8946 32.0196 28 31.7652 28 31.5V21.5C28 21.2348 27.8946 20.9804 27.7071 20.7929C27.5196 20.6054 27.2652 20.5 27 20.5Z" fill="#E51B38"/>
</svg>
