<svg width="13" height="15" viewBox="0 0 13 15" fill="none" xmlns="http://www.w3.org/2000/svg">
<path d="M8 1.00001C8.864 1.00001 9.664 1.27335 10.318 1.74001L4.22867 7.82868C4.16499 7.89018 4.1142 7.96374 4.07927 8.04508C4.04433 8.12641 4.02594 8.21389 4.02517 8.30241C4.0244 8.39093 4.04126 8.47872 4.07478 8.56065C4.10831 8.64258 4.15781 8.71701 4.2204 8.77961C4.283 8.8422 4.35743 8.89171 4.43936 8.92523C4.52129 8.95875 4.60908 8.97561 4.6976 8.97484C4.78612 8.97408 4.8736 8.95569 4.95494 8.92075C5.03627 8.88581 5.10984 8.83502 5.17133 8.77134L11.2607 2.68201C11.7418 3.35916 12.0002 4.16932 12 5.00001V11.6667C12 12.0203 11.8595 12.3594 11.6095 12.6095C11.3594 12.8595 11.0203 13 10.6667 13H1.33333C0.979711 13 0.640573 12.8595 0.390524 12.6095C0.140476 12.3594 0 12.0203 0 11.6667V2.33335C0 1.97972 0.140476 1.64058 0.390524 1.39054C0.640573 1.14049 0.979711 1.00001 1.33333 1.00001H8ZM12.438 0.562012C12.563 0.687031 12.6332 0.856569 12.6332 1.03335C12.6332 1.21012 12.563 1.37966 12.438 1.50468L11.26 2.68201C11.0007 2.31727 10.6821 1.99862 10.3173 1.73935L11.4947 0.562012C11.6197 0.437031 11.7892 0.366821 11.966 0.366821C12.1428 0.366821 12.313 0.437031 12.438 0.562012Z" fill="currentColor"/>
</svg>
