<svg width="74" height="65" viewBox="0 0 74 65" fill="none" xmlns="http://www.w3.org/2000/svg">
<g clip-path="url(#clip0_2_3151)">
<path d="M57.1757 18.678C47.2581 8.71262 34.5866 8.98514 24.7583 19.1609C18.4137 25.2696 15.8893 32.6101 17.4161 39.6575C17.8297 41.3855 18.4404 43.0603 19.2361 44.6489L17.3571 53.4573C16.5364 55.3395 17.2392 55.8064 18.8839 54.6335L24.1112 51.2867L24.8156 51.9911C28.6341 56.0423 32.9228 58.4504 37.2672 59.3907C44.1982 60.7979 51.4782 58.3308 57.5869 51.9895C67.9204 42.0066 68.1005 29.1438 57.6458 19.1609L57.1757 18.678ZM57.0721 33.3512C57.4833 33.7624 57.7478 34.3202 57.7478 34.9067L57.7494 34.9083C57.7494 35.4979 57.5151 36.0828 57.045 36.553C56.8091 36.7888 56.5749 37.0231 56.28 37.0821L35.6066 45.892C34.4926 46.1837 33.7276 45.7725 33.3164 45.3613C32.9031 44.9372 32.6718 44.3683 32.6721 43.7761C32.6724 43.1838 32.9042 42.6152 33.318 42.1915C33.5539 41.9556 33.7882 41.8392 34.0814 41.6608L54.6353 32.8524C54.9859 32.7355 55.2797 32.6765 55.5166 32.6755C56.1033 32.6896 56.6614 32.932 57.0721 33.3512ZM41.6148 27.0226C42.1136 27.5215 42.4212 28.2115 42.4228 28.9749L42.4244 28.9765C42.4244 29.6809 42.1885 30.3853 41.6005 30.8555C41.0714 31.3846 40.4275 31.5599 39.6625 31.6204C38.8976 31.6778 38.2505 31.3846 37.723 30.8571C37.1939 30.328 37.0186 29.6809 36.9612 28.9159C36.8991 28.1526 37.1923 27.5055 37.7214 26.9764C38.2505 26.4473 38.9581 26.2146 39.6625 26.2146C40.4275 26.2146 41.1144 26.5222 41.6148 27.0226ZM33.6878 34.9497C34.1866 35.4485 34.4942 36.1386 34.4942 36.9036L34.4958 36.9052C34.4368 37.6685 34.2009 38.373 33.6718 38.7841C33.4154 39.0334 33.1121 39.2294 32.7795 39.3607C32.4468 39.492 32.0914 39.5561 31.7339 39.5491C30.9705 39.6081 30.325 39.3132 29.7959 38.7841C29.5466 38.5277 29.3507 38.2244 29.2194 37.8918C29.088 37.5591 29.024 37.2037 29.031 36.8462C28.972 36.0796 29.2636 35.4342 29.7928 34.9051C30.3219 34.376 31.0295 34.1433 31.7339 34.1433C32.4989 34.1433 33.1873 34.4493 33.6878 34.9497Z" fill="url(#paint0_linear_2_3151)"/>
</g>
<defs>
<linearGradient id="paint0_linear_2_3151" x1="57.6227" y1="19.1249" x2="19.3734" y2="57.3743" gradientUnits="userSpaceOnUse">
<stop stop-color="#6ACFFF"/>
<stop offset="0.525" stop-color="#6ACFFF"/>
<stop offset="1" stop-color="#2EB0EE"/>
</linearGradient>
<clipPath id="clip0_2_3151">
<rect width="54.0919" height="54.0919" fill="white" transform="translate(38.4976) rotate(45)"/>
</clipPath>
</defs>
</svg>
