<svg width="81" height="75" viewBox="0 0 81 75" fill="none" xmlns="http://www.w3.org/2000/svg">
<g clip-path="url(#clip0_2_3160)">
<path d="M73.9502 31.635C73.8134 31.1249 73.5322 30.6653 73.1403 30.3114C72.7484 29.9575 72.2626 29.7244 71.7413 29.6402L23.5621 21.7777L23.5542 21.7731C22.9971 21.6853 22.4264 21.7715 21.9202 22.0201C21.4139 22.2687 20.9967 22.6675 20.7256 23.1621C20.4545 23.6567 20.3426 24.2229 20.4053 24.7834C20.468 25.3439 20.7023 25.8714 21.076 26.2938L21.1091 26.33L31.3341 39.9601C31.5524 40.1933 31.828 40.3651 32.1335 40.4585C32.439 40.5518 32.7636 40.5634 33.0749 40.4921L66.5725 32.7722C66.6749 32.7447 66.7816 32.7377 66.8867 32.7516C66.9918 32.7654 67.0931 32.7998 67.1849 32.8528C67.2767 32.9058 67.3571 32.9763 67.4216 33.0604C67.4862 33.1445 67.5335 33.2404 67.5609 33.3428C67.5883 33.4452 67.5953 33.5519 67.5815 33.657C67.5677 33.7621 67.5333 33.8634 67.4803 33.9552C67.4273 34.047 67.3567 34.1274 67.2727 34.1919C67.1886 34.2564 67.0926 34.3038 66.9902 34.3312L34.1252 44.3839C33.8199 44.4778 33.5446 44.6502 33.3267 44.8837C33.1089 45.1173 32.9561 45.4039 32.8836 45.715L30.841 62.6405C30.8355 62.6637 30.8311 62.6849 30.8272 62.7077C30.6145 63.8066 31.0419 64.9152 31.9844 65.5174L32.0833 65.5744C32.5702 65.8593 33.1315 65.991 33.6942 65.9526C34.257 65.9141 34.7952 65.7073 35.2388 65.3589L73.0238 34.4699C73.4356 34.1374 73.7422 33.6927 73.9066 33.1896C74.071 32.6865 74.0862 32.1465 73.9502 31.635Z" fill="url(#paint0_linear_2_3160)"/>
</g>
<defs>
<linearGradient id="paint0_linear_2_3160" x1="52.903" y1="18.5573" x2="27.339" y2="62.8354" gradientUnits="userSpaceOnUse">
<stop stop-color="#6ACFFF"/>
<stop offset="0.525" stop-color="#6ACFFF"/>
<stop offset="1" stop-color="#2EB0EE"/>
</linearGradient>
<clipPath id="clip0_2_3160">
<rect width="58.4349" height="58.4349" fill="white" transform="translate(29.4272 0.783203) rotate(30)"/>
</clipPath>
</defs>
</svg>
