<svg width="32" height="32" viewBox="0 0 32 32" fill="none" xmlns="http://www.w3.org/2000/svg">
<path d="M16.089 14.9109C23.3187 14.9109 29.1781 12.467 29.1781 9.45547C29.1781 6.44397 23.3187 4 16.089 4C8.85939 4 3 6.44397 3 9.45547C3 12.467 8.85939 14.9109 16.089 14.9109ZM16.089 23.6336C11.0937 23.6336 6.67618 22.432 3.88965 20.5761C3.32211 21.1896 3 21.8492 3 22.5445C3 25.556 8.85939 28 16.089 28C23.3187 28 29.1781 25.556 29.1781 22.5445C29.1781 21.8492 28.856 21.1896 28.2885 20.5812C25.5019 22.432 21.0844 23.6336 16.089 23.6336ZM16.089 17.089C11.0937 17.089 6.67618 15.8875 3.88965 14.0315C3.32211 14.6451 3 15.3046 3 16C3 19.0115 8.85939 21.4555 16.089 21.4555C23.3187 21.4555 29.1781 19.0115 29.1781 16C29.1781 15.3046 28.856 14.6451 28.2885 14.0366C25.5019 15.8875 21.0844 17.089 16.089 17.089Z" fill="currentColor"/>
</svg>
