<svg width="33" height="32" viewBox="0 0 33 32" fill="none" xmlns="http://www.w3.org/2000/svg">
<path fill-rule="evenodd" clip-rule="evenodd" d="M28.5333 10.6721C28.4578 10.6676 28.3773 10.6658 28.292 10.6667H24.9253C22.168 10.6667 19.8093 12.8374 19.8093 15.6667C19.8093 18.4961 22.1693 20.6667 24.9253 20.6667H28.292C28.3773 20.6676 28.4582 20.6658 28.5347 20.6614C29.1014 20.6272 29.6363 20.3882 30.0398 19.9888C30.4434 19.5895 30.6879 19.057 30.728 18.4907C30.7333 18.4107 30.7333 18.3241 30.7333 18.2441V13.0894C30.7333 13.0094 30.7333 12.9227 30.728 12.8427C30.6879 12.2764 30.4434 11.744 30.0398 11.3446C29.6363 10.9453 29.1 10.7062 28.5333 10.6721ZM24.6307 17.0001C25.34 17.0001 25.9147 16.4027 25.9147 15.6667C25.9147 14.9307 25.34 14.3334 24.6307 14.3334C23.92 14.3334 23.3453 14.9307 23.3453 15.6667C23.3453 16.4027 23.92 17.0001 24.6307 17.0001Z" fill="currentColor"/>
<path fill-rule="evenodd" clip-rule="evenodd" d="M28.2906 22.6667C28.3367 22.6648 28.3826 22.6739 28.4246 22.6931C28.4665 22.7123 28.5033 22.7411 28.532 22.7772C28.5607 22.8133 28.5805 22.8557 28.5898 22.9009C28.599 22.9461 28.5975 22.9928 28.5853 23.0373C28.3186 23.9867 27.8933 24.7973 27.212 25.4773C26.2133 26.4773 24.948 26.9187 23.3853 27.1293C21.8653 27.3333 19.9253 27.3333 17.4746 27.3333H14.6587C12.208 27.3333 10.2667 27.3333 8.74798 27.1293C7.18532 26.9187 5.91998 26.476 4.92132 25.4787C3.92398 24.48 3.48132 23.2147 3.27065 21.652C3.06665 20.132 3.06665 18.192 3.06665 15.7413V15.592C3.06665 13.1413 3.06665 11.2 3.27065 9.68C3.48132 8.11733 3.92398 6.852 4.92132 5.85333C5.91998 4.856 7.18532 4.41333 8.74798 4.20267C10.268 4 12.208 4 14.6587 4H17.4746C19.9253 4 21.8666 4 23.3853 4.204C24.948 4.41467 26.2133 4.85733 27.212 5.85467C27.8933 6.53733 28.3186 7.34667 28.5853 8.296C28.5975 8.34049 28.599 8.38723 28.5898 8.43243C28.5805 8.47762 28.5607 8.52 28.532 8.55611C28.5033 8.59222 28.4665 8.62105 28.4246 8.64026C28.3826 8.65947 28.3367 8.66852 28.2906 8.66667H24.9253C21.1426 8.66667 17.8093 11.6533 17.8093 15.6667C17.8093 19.68 21.1426 22.6667 24.9253 22.6667H28.2906ZM8.06665 9.33333C7.80143 9.33333 7.54708 9.43869 7.35954 9.62623C7.17201 9.81376 7.06665 10.0681 7.06665 10.3333C7.06665 10.5985 7.17201 10.8529 7.35954 11.0404C7.54708 11.228 7.80143 11.3333 8.06665 11.3333H13.4C13.6652 11.3333 13.9196 11.228 14.1071 11.0404C14.2946 10.8529 14.4 10.5985 14.4 10.3333C14.4 10.0681 14.2946 9.81376 14.1071 9.62623C13.9196 9.43869 13.6652 9.33333 13.4 9.33333H8.06665Z" fill="currentColor"/>
</svg>
