<svg width="33" height="32" viewBox="0 0 33 32" fill="none" xmlns="http://www.w3.org/2000/svg">
<path d="M11.844 8.00012H4.59998L4.44798 8.00812C4.22645 8.03364 4.01485 8.11432 3.83256 8.24277C3.65026 8.37123 3.5031 8.54335 3.40454 8.74339C3.30598 8.94343 3.25917 9.165 3.26839 9.38781C3.27761 9.61063 3.34257 9.82757 3.45732 10.0188L7.04398 16.0001L3.45732 21.9814L3.38532 22.1148C3.29291 22.318 3.25299 22.5411 3.26921 22.7637C3.28544 22.9863 3.35728 23.2013 3.47817 23.3889C3.59906 23.5765 3.76511 23.7308 3.96111 23.8376C4.15711 23.9444 4.37678 24.0003 4.59998 24.0001H11.8453L15.4573 30.0188L15.556 30.1628C15.6901 30.3313 15.863 30.4649 16.06 30.552C16.2569 30.6392 16.4721 30.6773 16.687 30.6631C16.9019 30.649 17.1102 30.583 17.2941 30.4708C17.4779 30.3585 17.6318 30.2035 17.7427 30.0188L21.3533 24.0001H28.6L28.752 23.9921C28.9735 23.9666 29.1851 23.8859 29.3674 23.7575C29.5497 23.629 29.6969 23.4569 29.7954 23.2568C29.894 23.0568 29.9408 22.8352 29.9316 22.6124C29.9224 22.3896 29.8574 22.1727 29.7426 21.9814L26.1546 16.0001L29.7426 10.0188L29.8146 9.88545C29.9071 9.68227 29.947 9.45915 29.9308 9.23654C29.9145 9.01393 29.8427 8.79895 29.7218 8.61132C29.6009 8.42369 29.4349 8.2694 29.2389 8.16262C29.0429 8.05583 28.8232 7.99995 28.6 8.00012H21.3547L17.7427 1.98145C17.6241 1.78431 17.4566 1.6212 17.2564 1.50796C17.0561 1.39472 16.83 1.33521 16.6 1.33521C16.37 1.33521 16.1438 1.39472 15.9436 1.50796C15.7434 1.6212 15.5759 1.78431 15.4573 1.98145L11.844 8.00012Z" fill="currentColor"/>
</svg>
