<svg width="33" height="32" viewBox="0 0 33 32" fill="none" xmlns="http://www.w3.org/2000/svg">
<path d="M16.1999 2.33325C13.4969 2.33325 10.8546 3.13479 8.60714 4.6365C6.35967 6.13821 4.60798 8.27265 3.57358 10.7699C2.53919 13.2672 2.26854 16.0151 2.79587 18.6662C3.3232 21.3172 4.62483 23.7524 6.53614 25.6637C8.44746 27.575 10.8826 28.8767 13.5337 29.404C16.1848 29.9313 18.9327 29.6607 21.4299 28.6263C23.9272 27.5919 26.0616 25.8402 27.5634 23.5927C29.0651 21.3452 29.8666 18.7029 29.8666 15.9999C29.8631 12.3764 28.4221 8.90226 25.8598 6.34002C23.2976 3.77779 19.8235 2.33678 16.1999 2.33325ZM17.1999 14.9999V4.33325C19.9538 4.55804 22.5383 5.75403 24.492 7.70781C26.4458 9.66158 27.6418 12.246 27.8666 14.9999H17.1999Z" fill="currentColor"/>
</svg>
